<?xml version="1.0" encoding="UTF-8"?>
<svg id="Layer_1" data-name="Layer 1" xmlns="http://www.w3.org/2000/svg" viewBox="0 0 960 960">
  <defs>
    <style>
      .cls-1 {
        fill: #315b81;
        stroke-width: 0px;
      }
    </style>
  </defs>
  <path class="cls-1" d="M434.46,462.94c1-.87,1.71-1.49,2.43-2.09,2.15-1.8,4.28-3.63,6.46-5.39,3.57-2.88,7.69-3.07,12.01-2.47,1.77.25,1.86,1.06.97,2.22-2.54,3.27-5.09,6.55-7.76,9.71-7.21,8.54-14.55,16.99-20.52,26.49-.89,1.42-1.79,2.91-2.27,4.49-.3.99-.18,2.5.41,3.24.53.65,2.1.98,2.99.72,2-.59,3.96-1.46,5.76-2.53,9.62-5.71,17.46-13.7,26.27-20.45,11.14-8.54,22.17-17.43,35.66-22.15,3.78-1.32,7.9-2.19,11.89-2.31,8.31-.26,12.48,4.96,10.44,12.96-.71,2.8-2.54,5.42-4.28,7.82-1.81,2.5-4.7,2.89-7.64,2.5-1.79-.23-2.94-2.08-2.27-4.24.89-2.87,2.17-5.62,3.28-8.42.49-1.24,1.11-2.44,1.42-3.73.7-2.96-1.11-4.8-3.89-3.59-2.78,1.22-5.56,2.83-7.79,4.87-9.35,8.51-17.81,17.8-23.56,29.23-.85,1.68-1.45,3.5-1.99,5.31-1.37,4.6,1.23,8.49,6.05,8.15,4.28-.3,8.61-1.31,12.69-2.69,9.18-3.1,17.11-8.53,24.44-14.71,5.14-4.33,9.65-9.4,14.71-13.83,7.67-6.72,15.58-13.17,24.86-17.65,3.81-1.84,10.55-2.29,15.17-.84-1.29,1.77-2.44,3.45-3.68,5.06-7.65,9.9-15.36,19.75-22.93,29.7-1.43,1.88-2.35,4.14-3.48,6.25-.86,1.6-.71,3.11.57,4.45,1.21,1.27,2.55.82,3.89.26,6.84-2.83,12.72-7.22,18.46-11.73,12.28-9.64,24.38-19.51,36.57-29.26,1.37-1.1,2.85-2.06,4.22-3.16,3.94-3.18,8.45-2.54,12.92-1.9,1.35.19,1.16,1.26.56,2.08-1.99,2.72-4,5.43-6.07,8.08-6.83,8.75-13.75,17.45-20.51,26.26-1.39,1.81-2.4,3.97-3.29,6.1-.35.84-.26,2.42.31,2.96.76.73,2.38,1.33,3.27,1,2.62-.96,5.16-2.24,7.55-3.69,9.2-5.57,16.97-12.96,25.06-19.94,6.23-5.38,12.7-10.49,18.68-16.13,4.12-3.88,7.71-8.35,11.31-12.75,16.19-19.84,32.36-39.69,50.48-57.84,5.01-5.02,10.25-9.83,15.56-14.54,3.3-2.92,7.33-3.72,11.66-2.72.39.09.76.28,1.61.61-1.45,1.78-2.68,3.44-4.04,4.97-13.25,14.85-26.76,29.47-39.73,44.56-13.94,16.21-27.11,33.06-39.29,50.65-4.48,6.47-8.95,12.97-11.82,20.38-.44,1.13-.74,2.48-.57,3.65.32,2.13,2.59,3.42,4.73,2.39,4.34-2.09,8.83-4.13,12.65-7.01,8.65-6.5,16.8-13.66,25.4-20.24,11.12-8.52,23.13-15.45,36.95-18.7,3.27-.77,6.59-.9,9.9-.32.07.19.14.38.22.57-.84.51-1.67,1.06-2.54,1.53-15.78,8.72-27.91,21.16-37.01,36.6-1.3,2.21-2.14,4.74-2.87,7.22-1.19,4.03,1.45,6.88,5.57,6.13,4.19-.76,7.83-2.88,11.03-5.49,5.05-4.13,9.83-8.58,14.67-12.97.56-.51.88-1.42,1.06-2.2,1.84-7.87,5.77-14.27,12.92-18.38,1.71-.98,2.55-2.3,2.5-4.27-.06-2.5-.07-5.01-.07-7.51,0-.46.11-.91.16-1.39,5.14,1.15,8.19,5.73,7.83,11.5-.39,6.23-3.68,11.14-7.37,15.78-2.35,2.96-5.15,5.58-7.72,8.37-.54.59-.99,1.26-1.71,2.18,4.74.56,8.7-.65,12.03-3.17,5.71-4.32,11.07-9.09,16.69-13.51,7.34-5.77,14.69-11.56,22.26-17.02,5.8-4.19,12.45-5.24,19.98-3.64-.65,1.09-1.09,2.07-1.74,2.88-5.44,6.72-11.15,13.24-16.32,20.17-4.27,5.72-7.95,11.89-11.8,17.92-.49.76-.74,1.9-.61,2.79.33,2.26,2.32,3.43,4.43,2.28,4.86-2.64,9.91-5.14,14.26-8.49,13.93-10.72,27.58-21.8,41.35-32.73,1.16-.92,2.42-1.7,3.53-2.67,4.02-3.48,8.71-3.02,13.43-2.35,1.34.19,1.32,1.16.69,2.03-1.98,2.73-3.98,5.44-6.06,8.09-6.87,8.81-13.83,17.56-20.63,26.43-1.35,1.76-2.19,3.91-3.26,5.88-.62,1.15-.87,2.46.33,3.21.96.6,2.45,1.2,3.36.86,2.61-.98,5.15-2.26,7.54-3.72,8.75-5.34,16.48-12.02,23.89-19.03,2.99-2.82,6.23-2.98,9.71-2.54,4.21.54,6.33,5.74,3.68,9.09-1.49,1.88-3.46,3.46-5.44,4.85-2.66,1.87-5.38,3.58-6.71,6.77-1.97,4.76.85,9.43,5.97,9.95,3.96.4,7.52-.56,10.81-2.72,6.46-4.24,10.72-10.34,13.93-17.14,3.84-8.12,7.29-16.43,10.9-24.66.07-.17.03-.39.08-1-8.97,6.31-17.06,13.49-27.29,17.64-.51-2.12.87-2.74,1.87-3.43,3.75-2.61,7.68-4.97,11.32-7.73,5.77-4.38,11.4-8.93,16.98-13.54,2.69-2.23,5.01-4.91,7.71-7.12,2.94-2.4,6.52-2.77,10.2-2.39,1.48.16,2.04.95.83,2-2.17,1.87-4.5,3.56-6.81,5.27-.84.63-1.76,1.16-2.7,1.64-4.21,2.12-5.22,5.72-4.85,10.07.5,6.04.64,12.07-.54,18.07-1.18,5.94-3.78,11.14-7.8,15.65-.49.54-.94,1.12-1.2,1.92,13.18-4.84,23.1-14.68,34.33-22.49.2.18.4.36.6.54-.42.79-.67,1.77-1.29,2.36-15.15,14.38-32.05,25.73-53.12,29.17-5.6.91-11.53.75-17.19.1-7.39-.85-12.12-8.02-11.06-15.42.2-1.37.27-2.76.46-4.72-1.09.65-1.77,1-2.39,1.45-6.07,4.42-11.99,9.07-18.23,13.23-4.81,3.2-10.28,4.55-16.2,4.5-6.73-.06-9.35-3.99-7.85-9.83.94-3.7,2.95-7.29,5.15-10.47,2.5-3.62,5.74-6.72,8.63-10.06.56-.64,1.02-1.37,1.53-2.05-.14-.14-.27-.28-.41-.42-.59.4-1.21.77-1.78,1.21-9.45,7.31-18.73,14.85-28.4,21.85-4.5,3.27-9.68,5.64-14.67,8.19-3.76,1.93-7.93,1.74-12.01,1.38-4.39-.39-7.18-4.49-6.31-9.01,1.06-5.51,4.15-9.98,7.64-14.12,4.97-5.91,10.21-11.6,15.33-17.39.59-.67,1.17-1.36,1.75-2.04-.13-.19-.26-.38-.39-.58-.98.6-1.97,1.18-2.93,1.81-7.39,4.82-13.93,10.68-20.44,16.59-4.31,3.92-8.85,7.62-14.31,9.94-3.78,1.6-7.73,1.89-11.78,1.81-1.13-.02-2.46.39-3.37,1.05-8.33,5.98-16.89,11.57-27.2,13.3-3.8.64-7.89.46-11.71-.19-4.95-.85-8.17-5.5-8.38-10.56-.21-5.09,1.2-9.71,3.72-14.05.95-1.64,1.86-3.29,2.79-4.94-.12-.13-.24-.26-.36-.39-1.92,1.63-3.87,3.22-5.75,4.9-7.28,6.54-14.75,12.85-23.18,17.87-6.15,3.66-12.58,6.33-20.04,6.22-7.11-.11-9.06-4.16-7.99-9.81.54-2.85,1.57-5.74,3.01-8.25,3.05-5.29,6.51-10.33,9.81-15.48.63-.98,1.25-1.96,1.88-2.94-.14-.14-.28-.28-.42-.42-.78.6-1.58,1.16-2.32,1.79-9.92,8.52-19.73,17.16-29.78,25.51-4.49,3.73-9.62,6.55-15.23,8.44-3.85,1.3-7.77,1.21-11.69.87-3.01-.26-5.12-3.03-5.32-6.15-.36-5.47,2.36-9.78,5.37-13.85,2.54-3.43,5.59-6.49,8.4-9.72.67-.77,1.28-1.59,1.92-2.39-.13-.15-.26-.31-.39-.46-.59.37-1.23.68-1.78,1.11-9.45,7.31-18.79,14.76-28.37,21.89-3.69,2.75-7.87,4.88-11.94,7.09-4.38,2.38-9.17,2.99-14.11,2.6-4.97-.39-8-4.3-7.04-9.21.89-4.54,3.2-8.44,6.08-11.9,5.63-6.73,11.49-13.27,17.25-19.89.48-.55.92-1.14,1.74-2.15-.89.18-1.27.15-1.49.32-5.76,4.37-12.04,8.22-17.08,13.31-4.51,4.55-8.99,9.08-14,13.06-10.75,8.55-22.54,15.05-36.13,17.84-4.58.94-9.22,1.04-13.82-.01-7.26-1.66-10.62-6.76-8.63-13.96,1.03-3.73,3.03-7.2,4.65-10.76.39-.87.98-1.66,1.15-2.87-.76.51-1.55.96-2.26,1.53-6.91,5.54-13.69,11.25-20.75,16.59-3.11,2.35-6.69,4.12-10.18,5.91-4.45,2.29-9.31,2.55-14.2,2.17-3.54-.27-5.89-2.8-5.55-6.33.25-2.62,1.16-5.17,1.78-7.75.11-.45.26-.88.58-1.96-1.07.85-1.65,1.29-2.21,1.76-6.83,5.61-14.12,10.43-22.59,13.26-4.11,1.38-8.35,1.32-12.53.89-4.56-.47-7.81-5.76-7.2-10.82.86-7.17,4.53-12.95,9.11-18.19,11-12.56,24.66-20.74,41.09-23.99,3.04-.6,6.3-.63,9.38-.28,4.79.53,7.01,3.49,6.99,8.37,0,.46.06.93.13,1.85ZM385.01,502.11c.08.18.16.36.24.54,3.64-1.59,7.42-2.92,10.89-4.83,10.3-5.65,18.87-13.44,26.3-22.45,3.15-3.82,5.78-8.07,8.54-12.21,1.31-1.97,1.04-4.01-.47-5.85-1.48-1.81-3.6-2.26-5.54-1.59-3.15,1.09-6.4,2.29-9.11,4.16-12.09,8.3-22.31,18.62-31.22,30.23-1.55,2.02-2.65,4.48-3.51,6.89-.97,2.75,1.03,5.14,3.89,5.11Z"/>
  <path class="cls-1" d="M341.48,410.19c-2.13.29-4.27.59-6.4.88-14.62,2-29.19,4.3-42.97,9.82-7.95,3.19-15.4,7.3-20.53,14.55-3.04,4.29-4.71,8.98-3.28,14.26.32,1.18,1.18,2.45,2.17,3.16,6.41,4.61,8.07,10.87,4.68,18.19-3.93,8.48-10.01,15.22-17.16,21.07-8.29,6.78-17.26,12.36-27.79,14.96-4.69,1.16-9.49,1.28-14.21.25-4.79-1.04-8.14-5.15-8.46-10.07-.39-5.93,1.68-11.17,4.71-16.11.83-1.36,1.71-2.7,2.86-4.52-2.88,1.4-4.15,4.43-7.11,4.57-.18-.17-.36-.35-.54-.52,1.36-1.7,2.5-3.65,4.12-5.05,9.34-8.01,19.57-14.66,31.02-19.28,5.54-2.24,11.2-4.2,17.31-4.01,1.14.04,2.28.31,3.41.47.02.18.05.37.07.55-.5.33-.96.73-1.49.96-5.82,2.51-10.83,6.23-15.52,10.42-8.31,7.43-16.07,15.38-21.59,25.19-1.57,2.8-2.82,5.81-3.91,8.84-1.52,4.22.95,7.15,5.32,6.3,2.1-.41,4.26-1.13,6.1-2.2,14.8-8.61,26.19-20.45,33.33-36.11,1.15-2.52,1.69-5.34,2.33-8.06.68-2.87-.77-5.28-1.88-7.8-3.25-7.39-2.7-14.47,2.16-21.08,3.45-4.69,8.23-7.58,13.33-10.06,8.68-4.21,17.95-6.46,27.41-7.93,9.08-1.41,18.2-2.55,27.31-3.77,1.88-.25,3.78-.47,5.66-.44,1.88.03,3.17-.72,4.36-2.08,7.71-8.86,15.24-17.89,23.25-26.46,14.57-15.59,30.55-29.54,49.49-39.66,4.78-2.55,10.04-4.47,15.31-5.78,3.57-.89,7.63-.8,11.28-.1,5.66,1.08,8.58,6.75,7.74,13.16-.86,6.62-4.08,12.03-8.33,16.95-8.12,9.39-18.28,16.19-28.87,22.39-15.87,9.29-32.91,15.77-50.64,20.42-4.25,1.11-7.24,3.24-9.87,6.76-7.5,10.02-15.37,19.75-23.07,29.62-1.9,2.44-3.7,4.96-5.53,7.45-.39.54-.7,1.13-.77,2.16,2.29-.52,4.6-.97,6.86-1.59,12.11-3.28,23.77-7.68,34.75-13.86,4.26-2.4,6.97-6.27,10.25-9.61,5.85-5.98,11.41-12.25,17.5-17.98,3.18-2.99,7.1-5.25,10.91-7.45,1.59-.92,3.75-1.05,5.66-1.14,2.06-.09,2.68.85,1.63,2.63-1.96,3.31-3.82,6.83-6.47,9.54-4.5,4.61-9.69,8.53-14.36,12.98-4.36,4.16-8.55,8.52-12.6,12.99-3.63,4.01-6.99,8.27-10.45,12.43-.34.41-.6.89-1.1,1.66,1.69,0,3.04,0,4.4,0,8.22-.02,16.45-.06,24.67,0,.51,0,1.01.78,1.52,1.19-.5.41-1,1.16-1.52,1.18-6.75.24-13.5.37-20.25.55-3.3.09-6.61.18-9.9.4-.83.06-1.96.38-2.4.98-5.03,6.85-10.5,13.46-14.74,20.78-4.23,7.31-8.09,14.81-13.59,21.26-2.49,2.91-5.41,5.52-8.42,7.91-2.41,1.9-5.39,2.64-8.86,2.05.39-.99.62-1.93,1.09-2.72,5.32-9.01,10.58-18.06,16.04-26.98,3.7-6.04,7.75-11.82,9.38-18.95.76-3.34,3.23-5.62,7.02-6.14,1.22-.17,2.56-1.06,3.42-2.01,2.09-2.27,3.94-4.76,5.87-7.17.33-.42.59-.9,1.17-1.82-.98.2-1.51.22-1.95.42-11.76,5.29-23.97,9.16-36.61,11.66-1.94.38-3.13,1.38-4.31,2.93-8.2,10.81-16.3,21.72-24.89,32.21-5.42,6.62-8.07,14.38-10.99,22.12-7.37,19.57-16.07,38.53-26.3,56.76-8.33,14.85-17.32,29.3-28.61,42.14-5.27,5.99-10.85,11.74-18.37,14.85-2.35.97-5.19,1.03-7.8,1.01-1.87-.01-3-1.62-3.62-3.39-.89-2.54-.76-5.07-.16-7.67,2.2-9.54,6.42-18.27,10.95-26.85,13.8-26.13,30.48-50.37,48.68-73.6,7.59-9.69,15.12-19.42,22.46-29.29,1.39-1.87,2.03-4.44,2.54-6.79.77-3.55,1.04-7.22,1.69-10.8,1.69-9.42,6.37-14.39,15.97-15.5,4.93-.57,7.83-2.81,10.68-6.53,8.81-11.5,17.96-22.73,26.97-34.08.59-.75,1.1-1.56,1.64-2.35-.1-.2-.21-.41-.31-.61ZM364.19,402.2c.12.19.24.37.36.56,1.01-.2,2.03-.34,3.02-.6,13.34-3.58,26.17-8.48,38.46-14.78,11.63-5.97,22.6-12.88,31.53-22.6,5.14-5.6,9.37-11.75,10.93-19.39.55-2.71.18-5.12-1.6-7.32-2.53-3.13-5.98-3.09-9.45-2.8-4.88.41-9.17,2.53-13.26,5.06-10.75,6.64-19.83,15.25-28.2,24.58-8.64,9.62-16.94,19.53-25.36,29.35-2.22,2.59-4.3,5.29-6.44,7.95ZM284.18,507.43c-.16-.1-.33-.21-.49-.31-.27.29-.57.56-.81.87-6.88,8.98-13.97,17.82-20.59,26.99-9.09,12.59-18.09,25.26-26.63,38.23-7.61,11.55-14.62,23.5-21.69,35.4-1.77,2.98-2.97,6.35-4.02,9.68-.34,1.06.3,2.87,1.13,3.7.5.5,2.39.1,3.36-.43,5.02-2.73,8.94-6.8,12.65-11.04,13.67-15.59,24.55-33.1,33.92-51.47,7.43-14.56,13.68-29.72,20.42-44.63,1.03-2.28,1.84-4.65,2.75-6.98ZM305.15,456.83c-4.22.61-8.1,1.77-11.06,4.92-4.17,4.44-4.31,10.27-5.26,15.92,6.18-6.36,11.2-13.6,16.32-20.83Z"/>
  <path class="cls-1" d="M36.74,532.09c-.04-2.96.56-5.76,2.02-8.39,4.29-7.76,9.81-14.55,16.12-20.74,1.44-1.41,2.85-2.85,4.36-4.37-4.32-4.11-7.31-8.76-9.09-14.09-4.75-14.26-.88-26.57,9.05-37.23,9.06-9.73,20.53-15.51,33.05-19.48,10.02-3.18,20.3-4.62,30.76-4.09,9.56.48,19,1.96,27.67,6.47,3.53,1.83,6.74,4.06,9.21,7.24.84,1.08,1.66,1.61,3.21.97,13.69-5.67,27.38-11.33,41.16-16.79,2.98-1.18,5.1-2.91,6.9-5.48,8.25-11.82,17.48-22.76,28.98-31.59,5.16-3.96,10.69-7.41,17.17-8.66,3.11-.6,6.43-.68,9.59-.34,4.57.49,6.86,4.29,5.65,8.76-1.32,4.89-4.58,8.5-8.22,11.76-7.35,6.59-15.84,11.39-24.78,15.44-3.58,1.62-7.31,2.9-10.89,4.51-1.06.48-2.17,1.39-2.7,2.39-4.85,9.12-9.58,18.3-14.34,27.47-9.44,18.16-21.54,34.1-38.57,45.85-14.18,9.78-29.85,15.71-46.89,18.25-12.88,1.92-25.74,2.38-38.64.39-7.97-1.23-15.61-3.55-22.59-7.71-1.16-.69-2.01-.71-3,.2-7.51,6.91-14.92,13.91-20.48,22.59-1.02,1.59-1.81,3.33-2.76,4.97-.41.7-.95,1.32-1.44,1.98-.17-.09-.34-.18-.51-.27ZM68.96,497.1c4.61,3.84,9.31,6.58,14.54,8.35,10.9,3.69,22.1,4.47,33.49,3.45,15.18-1.36,28.46-7.32,40.29-16.7,12.34-9.8,21.68-22.18,29.84-35.49,6.17-10.06,12.12-20.25,18.15-30.39.32-.53.44-1.18.82-2.25-2.73,1.15-4.92,2.06-7.11,2.99-11.36,4.84-22.71,9.69-34.07,14.55-.96.41-1.63.8-1.1,2.19,1.55,4.05,1.49,8.29.71,12.47-1.34,7.2-5.6,12.69-11.52,16.52-17.07,11.03-35.12,13.33-54.13,5.19-.99-.42-2.63-.5-3.44.05-7.26,4.94-14.41,10.04-21.55,15.14-1.63,1.17-3.14,2.51-4.91,3.94ZM155.99,441.63c-1.67-4.03-5.92-7.95-11-10.29-12.58-5.81-25.81-6.38-39.2-4.34-11.43,1.74-21.83,6.25-30.86,13.61-11.01,8.99-17.04,20.39-16.07,34.85.38,5.73,2.2,11.13,5.45,15.98.73,1.09,1.33,1.5,2.46.46,7.14-6.56,15.21-11.77,23.69-16.39.63-.34,1.17-.84,1.87-1.35-.58-.55-.96-.87-1.28-1.22-2.6-2.9-4.38-6.19-4.66-10.13-.06-.82.34-1.67.53-2.5.24,0,.49,0,.73,0,.76,4.2,3.07,7.46,5.81,10.52,1.13,1.26,2.11,1.58,3.62.64,2.92-1.82,5.84-3.67,8.91-5.21,14.2-7.09,28.44-14.08,42.68-21.09,2.44-1.2,4.89-2.37,7.32-3.55ZM100.19,474.83c.6.44.89.74,1.24.91,6.07,2.84,12.51,4.4,19.16,4.26,10.36-.22,19.72-3.69,27.74-10.27,7.06-5.78,10.86-13.12,9.54-22.54-.29-2.04-.61-2.23-2.74-1.33-18.35,7.71-36.07,16.65-52.84,27.4-.67.43-1.28.96-2.1,1.58ZM229.09,411.87c.13.18.27.36.4.53,1.39-.53,2.79-1.03,4.16-1.59,9.86-4.05,19.18-9.03,27.45-15.83,3.62-2.98,6.74-6.38,8.3-10.93,1.03-2.98-.29-5.56-3.36-6.33-1.32-.33-2.81-.45-4.14-.2-5.29.97-9.15,4.41-12.91,7.91-6.48,6.03-11.36,13.35-16.21,20.67-1.26,1.9-2.46,3.85-3.68,5.78Z"/>
</svg>