<?xml version="1.0" encoding="UTF-8"?>
<svg version="1.1" xmlns="http://www.w3.org/2000/svg" width="384" height="256">
<path d="M0 0 C1.35219312 1.14475441 2.68654148 2.31100227 4 3.5 C4.99 4.35271484 4.99 4.35271484 6 5.22265625 C20.27958083 18.35875502 27.87862514 37.49492249 29.21484375 56.56640625 C29.8982034 78.84393092 21.50712477 98.58232044 6.3125 114.75 C-2.69573597 123.33924825 -13.31077377 129.33581562 -25 133.5 C-25.80566406 133.80679688 -26.61132812 134.11359375 -27.44140625 134.4296875 C-41.33309475 139.23570823 -58.37522628 138.99856939 -72 133.5 C-73.2684375 133.03207031 -73.2684375 133.03207031 -74.5625 132.5546875 C-79.50147105 130.68787404 -83.67908197 128.58637002 -88 125.5 C-89.32567199 124.81822584 -90.65753688 124.14808564 -92 123.5 C-92.99 122.84 -93.98 122.18 -95 121.5 C-95 120.84 -95 120.18 -95 119.5 C-95.5775 119.438125 -96.155 119.37625 -96.75 119.3125 C-99.88257571 118.1812921 -101.03460851 116.12052199 -103 113.5 C-103.66 113.17 -104.32 112.84 -105 112.5 C-105 111.84 -105 111.18 -105 110.5 C-105.66 110.5 -106.32 110.5 -107 110.5 C-107 109.84 -107 109.18 -107 108.5 C-107.66 108.17 -108.32 107.84 -109 107.5 C-110.03565785 106.19417053 -111.03126968 104.85622245 -112 103.5 C-112.556875 102.819375 -113.11375 102.13875 -113.6875 101.4375 C-115 99.5 -115 99.5 -115 96.5 C-115.66 96.17 -116.32 95.84 -117 95.5 C-120.22536693 89.85560787 -121.91090541 83.85953449 -123 77.5 C-123.185625 76.47132813 -123.37125 75.44265625 -123.5625 74.3828125 C-125.31164416 63.66930451 -126.8681627 51.8514213 -123 41.5 C-122.71769531 40.41976562 -122.43539062 39.33953125 -122.14453125 38.2265625 C-120.71263011 33.56433147 -118.76866463 29.27812517 -116.6875 24.875 C-116.30916016 24.04226562 -115.93082031 23.20953125 -115.54101562 22.3515625 C-113.27048823 17.52621155 -111.03852896 14.09473457 -107 10.5 C-106.2678125 9.70980469 -105.535625 8.91960937 -104.78125 8.10546875 C-77.37034518 -20.9482129 -31.60708035 -23.69175663 0 0 Z M-103 18.5 C-103 19.16 -103 19.82 -103 20.5 C-95.41 20.5 -87.82 20.5 -80 20.5 C-80 22.15 -80 23.8 -80 25.5 C-83.16609462 27.37620422 -85.35832401 27.59662822 -89 27.5 C-86.56642609 37.12177554 -83.41865506 46.47780737 -80.25 55.875 C-79.44138709 58.2806035 -78.63341679 60.68642212 -77.82553101 63.0922699 C-77.29339491 64.67668221 -76.76086701 66.26096299 -76.22793579 67.84510803 C-74.7024275 72.38493692 -73.20102104 76.93154092 -71.7265625 81.48828125 C-71.40655273 82.47199707 -71.08654297 83.45571289 -70.75683594 84.46923828 C-70.18392035 86.23525216 -69.61654192 88.00307541 -69.05566406 89.77294922 C-68.42643292 91.70114581 -67.72187443 93.60453931 -67 95.5 C-66.01 95.995 -66.01 95.995 -65 96.5 C-64.71278076 95.62786865 -64.42556152 94.7557373 -64.12963867 93.85717773 C-63.05300635 90.59300556 -61.97359119 87.3297804 -60.89233398 84.06713867 C-60.42671311 82.66027657 -59.96217418 81.25305586 -59.4987793 79.84545898 C-58.82891897 77.81136211 -58.15505699 75.77862685 -57.48046875 73.74609375 C-56.87561646 71.91582642 -56.87561646 71.91582642 -56.25854492 70.04858398 C-55.36603086 67.53205791 -54.43192957 65.18674998 -53.3371582 62.76586914 C-51.24440681 57.65454261 -52.3414954 54.11632947 -54.375 49.125 C-54.91125 47.92875 -55.4475 46.7325 -56 45.5 C-56.4942282 44.04670193 -56.9727004 42.58797578 -57.4375 41.125 C-57.69144531 40.37476563 -57.94539063 39.62453125 -58.20703125 38.8515625 C-58.75362047 37.23064273 -59.27018244 35.59939187 -59.76171875 33.9609375 C-60.63066815 31.48384194 -61.372816 29.56509471 -63 27.5 C-65.46123984 26.66949376 -67.48283196 26.5 -70.07421875 26.5 C-70.70972656 26.5 -71.34523438 26.5 -72 26.5 C-72.495 26.005 -72.495 26.005 -73 25.5 C-72.67 24.18 -72.34 22.86 -72 21.5 C-49.725 21.005 -49.725 21.005 -27 20.5 C-27 22.15 -27 23.8 -27 25.5 C-30.65720457 26.55496286 -34.30685628 27.57671407 -38 28.5 C-30.41 51.27 -22.82 74.04 -15 97.5 C-9.99072833 89.9860925 -8.41874711 80.0978136 -6 71.5 C-5.48373047 69.70369141 -5.48373047 69.70369141 -4.95703125 67.87109375 C-1.57624076 55.96243174 -2.32860703 47.96614638 -7 36.5 C-7.66 36.5 -8.32 36.5 -9 36.5 C-9.19722656 35.62021484 -9.19722656 35.62021484 -9.3984375 34.72265625 C-10.01122607 32.21922386 -10.01122607 32.21922386 -11.625 28.9375 C-13.53196214 23.94933794 -13.57312413 18.60620619 -12 13.5 C-10.08203125 12.28125 -10.08203125 12.28125 -8 11.5 C-6.64886795 10.52418241 -5.31053056 9.52970259 -4 8.5 C-5.31201173 6.93750191 -5.31201173 6.93750191 -7 5.5 C-7.99 5.5 -8.98 5.5 -10 5.5 C-10.495 4.015 -10.495 4.015 -11 2.5 C-11.99 2.5 -12.98 2.5 -14 2.5 C-14 1.84 -14 1.18 -14 0.5 C-46.72369293 -12.85337792 -78.79567474 -9.5953279 -103 18.5 Z M14 32.5 C13.70283081 34.04010742 13.70283081 34.04010742 13.3996582 35.61132812 C10.94511023 47.73055377 7.30114017 59.27890721 3.24682617 70.94970703 C2.18994971 73.99294616 1.14751432 77.04083245 0.10742188 80.08984375 C-3.35203336 90.1749178 -6.90115383 100.19259828 -11.01557922 110.03259277 C-12.80288173 114.17039682 -12.80288173 114.17039682 -12 118.5 C-10.82780457 117.71654285 -9.66236332 116.92297164 -8.5 116.125 C-7.8503125 115.68414062 -7.200625 115.24328125 -6.53125 114.7890625 C-6.0259375 114.36367187 -5.520625 113.93828125 -5 113.5 C-5 112.84 -5 112.18 -5 111.5 C-4.38125 111.2525 -3.7625 111.005 -3.125 110.75 C-0.64931313 109.29371361 -0.04874998 108.12187494 1 105.5 C1.66 105.5 2.32 105.5 3 105.5 C3 104.84 3 104.18 3 103.5 C4.485 103.005 4.485 103.005 6 102.5 C6 101.51 6 100.52 6 99.5 C6.66 99.5 7.32 99.5 8 99.5 C16.5622182 88.82861368 19.7252607 74.85919851 20 61.5 C20.0928125 60.15035156 20.0928125 60.15035156 20.1875 58.7734375 C20.59595866 50.11921963 18.85609667 39.78414501 14 32.5 Z M-111 33.5 C-111.65161012 35.37300025 -112.29602195 37.2485055 -112.9375 39.125 C-113.47697266 40.69121094 -113.47697266 40.69121094 -114.02734375 42.2890625 C-119.09199765 59.00852236 -115.98207939 78.22180116 -108 93.5 C-100.94746458 104.9446278 -91.93894376 114.25110603 -80 120.5 C-80.4955439 116.43653999 -81.55219875 113.15215865 -83.19555664 109.41967773 C-84.51077107 106.28112506 -85.52634617 103.05170644 -86.5625 99.8125 C-87.81435567 95.90190442 -89.10148238 92.15099543 -91 88.5 C-94.29232317 80.0893593 -97.06554974 71.47272661 -99.84765625 62.8828125 C-100.10417969 62.09648437 -100.36070312 61.31015625 -100.625 60.5 C-100.84414062 59.819375 -101.06328125 59.13875 -101.2890625 58.4375 C-101.97266141 56.46137031 -101.97266141 56.46137031 -102.9921875 54.5234375 C-104.03806814 52.42356862 -104.77975376 50.35619759 -105.5 48.125 C-105.75652344 47.33996094 -106.01304687 46.55492187 -106.27734375 45.74609375 C-106.87338091 43.89354582 -107.46811615 42.04057906 -108.0625 40.1875 C-108.88681105 37.824475 -109.85937076 35.71973076 -111 33.5 Z M-48 68.5 C-48.42821045 69.72928223 -48.8564209 70.95856445 -49.29760742 72.22509766 C-50.90920156 76.85110246 -52.52151668 81.47685571 -54.1340332 86.10253906 C-54.82758472 88.09238096 -55.52094902 90.08228812 -56.21411133 92.07226562 C-60.10081669 103.23005663 -63.99884988 114.38264637 -68 125.5 C-53.64105122 129.73030108 -41.39616315 128.50068909 -27 125.5 C-28.01353357 119.8588855 -29.55419992 114.94079351 -31.9921875 109.7578125 C-33.29090279 106.84828754 -34.25318968 103.87785705 -35.19140625 100.8359375 C-36.0215652 98.33924703 -36.0215652 98.33924703 -37.3671875 95.3671875 C-39.75359949 89.88542633 -41.56757562 84.19041346 -43.48242188 78.53125 C-43.77826172 77.67015625 -44.07410156 76.8090625 -44.37890625 75.921875 C-44.77444702 74.75543457 -44.77444702 74.75543457 -45.17797852 73.56542969 C-46.01669428 71.24994323 -46.01669428 71.24994323 -48 68.5 Z " fill="#F2F3F2" transform="translate(240,67.5)"/>
<path d="M0 0 C0.66 0 1.32 0 2 0 C3.25664978 2.90600261 4 4.79604584 4 8 C7.3 8 10.6 8 14 8 C12.21844267 11.56311466 10.83236991 13.35645475 8 16 C8.33 16.9075 8.66 17.815 9 18.75 C10 22 10 22 10 26 C7 26 7 26 4.3125 23.5 C3.549375 22.675 2.78625 21.85 2 21 C-1.45925163 22.2491742 -4.14693203 23.67527795 -7 26 C-8.41687119 21.74938644 -7.19320039 19.28148375 -6 15 C-6.99 14.21625 -7.98 13.4325 -9 12.625 C-9.99 11.75875 -10.98 10.8925 -12 10 C-12 9.34 -12 8.68 -12 8 C-8.7 8 -5.4 8 -2 8 C-1.855625 6.865625 -1.71125 5.73125 -1.5625 4.5625 C-1 1 -1 1 0 0 Z " fill="#E9C13D" transform="translate(191,22)"/>
<path d="M0 0 C0.66 0 1.32 0 2 0 C2.99 2.64 3.98 5.28 5 8 C7.97 8.33 10.94 8.66 14 9 C14 9.66 14 10.32 14 11 C12.03852126 12.38938077 10.03833424 13.7260411 8 15 C8.33 16.0725 8.66 17.145 9 18.25 C10 22 10 22 10 26 C6.62496331 24.8141763 4.35277269 23.72426311 2 21 C1.46375 21.268125 0.9275 21.53625 0.375 21.8125 C-2.41666667 23.20833333 -5.20833333 24.60416667 -8 26 C-9 24 -9 24 -8.44140625 22.0546875 C-8.15136719 21.33539063 -7.86132812 20.61609375 -7.5625 19.875 C-7.27503906 19.15054688 -6.98757812 18.42609375 -6.69140625 17.6796875 C-6.46324219 17.12539062 -6.23507813 16.57109375 -6 16 C-6.99 15.21625 -7.98 14.4325 -9 13.625 C-9.99 12.75875 -10.98 11.8925 -12 11 C-12 10.34 -12 9.68 -12 9 C-7.545 8.505 -7.545 8.505 -3 8 C-2.690625 7.05125 -2.38125 6.1025 -2.0625 5.125 C-1 2 -1 2 0 0 Z " fill="#E8C039" transform="translate(107,155)"/>
<path d="M0 0 C0.66 0 1.32 0 2 0 C3.25664978 2.90600261 4 4.79604584 4 8 C7.3 8 10.6 8 14 8 C12 12 12 12 8 15 C8.66 18.3 9.32 21.6 10 25 C6.09161134 25 4.88405893 23.49432124 2 21 C1.278125 21.28875 0.55625 21.5775 -0.1875 21.875 C-2.79166667 22.91666667 -5.39583333 23.95833333 -8 25 C-7.125 17.25 -7.125 17.25 -6 15 C-8.31 13.35 -10.62 11.7 -13 10 C-12.67 9.34 -12.34 8.68 -12 8 C-9.03 8 -6.06 8 -3 8 C-2.01 5.36 -1.02 2.72 0 0 Z " fill="#E2BC3E" transform="translate(144,32)"/>
<path d="M0 0 C0.66 0 1.32 0 2 0 C3.49821059 3.37097383 4 5.20442119 4 9 C7.3 9 10.6 9 14 9 C12.75453595 12.73639216 11.36595047 13.18756513 8 15 C8.66 18.3 9.32 21.6 10 25 C8.68 25.33 7.36 25.66 6 26 C3.25 23.5625 3.25 23.5625 1 21 C0.443125 21.474375 -0.11375 21.94875 -0.6875 22.4375 C-3.18346074 24.12395996 -5.0446237 24.58953107 -8 25 C-7.39009109 21.44219804 -6.4216319 18.3171411 -5 15 C-5.99 14.67 -6.98 14.34 -8 14 C-10.1875 12.5625 -10.1875 12.5625 -12 11 C-12 10.34 -12 9.68 -12 9 C-7.545 8.505 -7.545 8.505 -3 8 C-2.01 5.36 -1.02 2.72 0 0 Z " fill="#E3BA37" transform="translate(191,207)"/>
<path d="M0 0 C0.99 0.33 1.98 0.66 3 1 C3.73046875 2.84765625 3.73046875 2.84765625 4.1875 5.0625 C4.34605469 5.79597656 4.50460938 6.52945313 4.66796875 7.28515625 C4.77753906 7.85105469 4.88710937 8.41695312 5 9 C5.66 8.67 6.32 8.34 7 8 C9.3329866 7.95977609 11.66706666 7.95679753 14 8 C14 8.99 14 9.98 14 11 C11 13.1875 11 13.1875 8 15 C8.66 18.3 9.32 21.6 10 25 C4.375 23.875 4.375 23.875 2 21 C-0.91517292 22.07401108 -2.77810176 22.77810176 -5 25 C-5.99 25 -6.98 25 -8 25 C-7.33333333 21.66666667 -6.66666667 18.33333333 -6 15 C-7.98 13.35 -9.96 11.7 -12 10 C-11.67 9.34 -11.34 8.68 -11 8 C-8.36 8 -5.72 8 -3 8 C-2.01 5.36 -1.02 2.72 0 0 Z " fill="#E6BF3C" transform="translate(238,32)"/>
<path d="M0 0 C0.66 0 1.32 0 2 0 C2.99 2.64 3.98 5.28 5 8 C7.97 8.33 10.94 8.66 14 9 C12 13 12 13 9 15 C9.33 18.3 9.66 21.6 10 25 C6.17902761 24.46930939 3.93828597 23.50298434 1 21 C-1.64 22.65 -4.28 24.3 -7 26 C-8.11478883 21.54084467 -7.59848253 20.99620633 -6 17 C-5.9853761 14.8064655 -5.9853761 14.8064655 -7 13 C-8.9837767 11.71563266 -8.9837767 11.71563266 -11 11 C-11 10.34 -11 9.68 -11 9 C-8.03 9 -5.06 9 -2 9 C-1.34 6.03 -0.68 3.06 0 0 Z " fill="#E3BB38" transform="translate(138,191)"/>
<path d="M0 0 C0.66 0 1.32 0 2 0 C2.66 2.97 3.32 5.94 4 9 C7.3 9 10.6 9 14 9 C12.86280581 12.41158256 11.95657056 13.11854601 9 15 C8.34 15 7.68 15 7 15 C7.99 18.63 8.98 22.26 10 26 C6.18566987 24.47426795 4.03447696 23.47253678 1 21 C0.51789063 21.3609375 0.03578125 21.721875 -0.4609375 22.09375 C-1.09257812 22.5578125 -1.72421875 23.021875 -2.375 23.5 C-3.00148438 23.9640625 -3.62796875 24.428125 -4.2734375 24.90625 C-6 26 -6 26 -8 26 C-7.34 22.7 -6.68 19.4 -6 16 C-6.99 15.21625 -7.98 14.4325 -9 13.625 C-9.99 12.75875 -10.98 11.8925 -12 11 C-12 10.34 -12 9.68 -12 9 C-9.03 9 -6.06 9 -3 9 C-2.01 6.03 -1.02 3.06 0 0 Z " fill="#E9C03A" transform="translate(272,64)"/>
<path d="M0 0 C0.66 0 1.32 0 2 0 C2.99 2.64 3.98 5.28 5 8 C7.97 8.33 10.94 8.66 14 9 C12 13 12 13 9.75 14.6875 C7.73246318 16.81890723 7.73246318 16.81890723 8.1875 19.25390625 C8.70268471 21.54003838 9.29354512 23.76607512 10 26 C6.54074837 24.7508258 3.85306797 23.32472205 1 21 C-1.64 22.65 -4.28 24.3 -7 26 C-8.31625194 23.36749612 -7.74813658 22.19820944 -7.0625 19.375 C-6.86785156 18.55773437 -6.67320313 17.74046875 -6.47265625 16.8984375 C-6.31667969 16.27195312 -6.16070312 15.64546875 -6 15 C-6.99 14.38125 -7.98 13.7625 -9 13.125 C-9.99 12.42375 -10.98 11.7225 -12 11 C-12 10.34 -12 9.68 -12 9 C-7.545 8.505 -7.545 8.505 -3 8 C-2.01 5.36 -1.02 2.72 0 0 Z " fill="#E7C03C" transform="translate(110,64)"/>
<path d="M0 0 C0.66 0 1.32 0 2 0 C2.66 2.97 3.32 5.94 4 9 C6.97 9 9.94 9 13 9 C11 13 11 13 8 15 C8.33 18.63 8.66 22.26 9 26 C7.35 25.67 5.7 25.34 4 25 C3.67 24.01 3.34 23.02 3 22 C2.01 21.67 1.02 21.34 0 21 C-1.8948204 21.97229848 -1.8948204 21.97229848 -3.6875 23.4375 C-4.31011719 23.91058594 -4.93273437 24.38367188 -5.57421875 24.87109375 C-6.27998047 25.42990234 -6.27998047 25.42990234 -7 26 C-7.66 25.34 -8.32 24.68 -9 24 C-7.02 19.545 -7.02 19.545 -5 15 C-6.175625 14.62875 -6.175625 14.62875 -7.375 14.25 C-10 13 -10 13 -12 9 C-7.545 8.505 -7.545 8.505 -3 8 C-2.01 5.36 -1.02 2.72 0 0 Z " fill="#E4BB39" transform="translate(244,191)"/>
<path d="M0 0 C0.66 0 1.32 0 2 0 C2.99 2.64 3.98 5.28 5 8 C7.97 8.33 10.94 8.66 14 9 C14 9.66 14 10.32 14 11 C12.03852126 12.38938077 10.03833424 13.7260411 8 15 C8.33 16.0725 8.66 17.145 9 18.25 C10 22 10 22 10 26 C6.20411134 25.45773019 4.52788007 23.79872437 2 21 C-0.91517292 22.07401108 -2.77810176 22.77810176 -5 25 C-5.99 25 -6.98 25 -8 25 C-7.25 18.375 -7.25 18.375 -5 15 C-5.66 15 -6.32 15 -7 15 C-7 14.34 -7 13.68 -7 13 C-7.639375 12.71125 -8.27875 12.4225 -8.9375 12.125 C-11 11 -11 11 -12 9 C-7.545 8.505 -7.545 8.505 -3 8 C-2.01 5.36 -1.02 2.72 0 0 Z " fill="#ECC237" transform="translate(275,155)"/>
<path d="M0 0 C0.66 0 1.32 0 2 0 C2.66 2.97 3.32 5.94 4 9 C7.3 9 10.6 9 14 9 C14 9.66 14 10.32 14 11 C12.03852126 12.38938077 10.03833424 13.7260411 8 15 C8.33 18.3 8.66 21.6 9 25 C8.01 25 7.02 25 6 25 C6 24.34 6 23.68 6 23 C5.01 23 4.02 23 3 23 C2.67 22.34 2.34 21.68 2 21 C-0.95409701 22.37154504 -3.44008376 23.98863724 -6 26 C-6.66 25.34 -7.32 24.68 -8 24 C-7.7578125 22.0546875 -7.7578125 22.0546875 -7.125 19.875 C-6.92132813 19.15054688 -6.71765625 18.42609375 -6.5078125 17.6796875 C-6.34023438 17.12539062 -6.17265625 16.57109375 -6 16 C-6.99 15.21625 -7.98 14.4325 -9 13.625 C-9.99 12.75875 -10.98 11.8925 -12 11 C-12 10.34 -12 9.68 -12 9 C-7.545 8.505 -7.545 8.505 -3 8 C-2.690625 7.05125 -2.38125 6.1025 -2.0625 5.125 C-1 2 -1 2 0 0 Z " fill="#EAC138" transform="translate(285,109)"/>
<path d="M0 0 C0.66 0 1.32 0 2 0 C2.99 2.64 3.98 5.28 5 8 C7.97 8.33 10.94 8.66 14 9 C14 9.66 14 10.32 14 11 C12.03852126 12.38938077 10.03833424 13.7260411 8 15 C8.59950296 18.68266103 9.24758891 22.34543185 10 26 C6.66666667 24.33333333 3.33333333 22.66666667 0 21 C-1.1446875 22.0209375 -1.1446875 22.0209375 -2.3125 23.0625 C-3.199375 23.701875 -4.08625 24.34125 -5 25 C-5.99 24.67 -6.98 24.34 -8 24 C-7.34 21.03 -6.68 18.06 -6 15 C-7.32 14.34 -8.64 13.68 -10 13 C-10 12.34 -10 11.68 -10 11 C-10.66 11 -11.32 11 -12 11 C-12 10.34 -12 9.68 -12 9 C-8.7 9 -5.4 9 -2 9 C-2 7.35 -2 5.7 -2 4 C-1 1.6875 -1 1.6875 0 0 Z " fill="#EEC336" transform="translate(97,109)"/>
<path d="M0 0 C0.99 0 1.98 0 3 0 C5.4021604 4.8043208 5.61122229 9.73103895 6 15 C5.01 15 4.02 15 3 15 C3 14.34 3 13.68 3 13 C2.01 13 1.02 13 0 13 C-0.33 12.34 -0.66 11.68 -1 11 C-2.98 11.66 -4.96 12.32 -7 13 C-8.04449911 9.86650268 -7.93423645 9.01031744 -7 6 C-6.01 6 -5.02 6 -4 6 C-4.66 4.35 -5.32 2.7 -6 1 C-5.01 1.66 -4.02 2.32 -3 3 C-2.01 2.67 -1.02 2.34 0 2 C0 1.34 0 0.68 0 0 Z " fill="#F6C52C" transform="translate(288,119)"/>
<path d="M0 0 C0.66 0 1.32 0 2 0 C2 0.66 2 1.32 2 2 C2.66 2 3.32 2 4 2 C5.31626692 5.61973402 6 8.09567131 6 12 C2.20411134 11.45773019 0.52788007 9.79872437 -2 7 C-4.91517292 8.07401108 -6.77810176 8.77810176 -9 11 C-9.99 11 -10.98 11 -12 11 C-11.74438677 8.6568787 -11.40729228 6.32156597 -11 4 C-10.34 3.67 -9.68 3.34 -9 3 C-9 3.66 -9 4.32 -9 5 C-5.9254644 4.2236068 -5.9254644 4.2236068 -4 2 C-3.01 2.33 -2.02 2.66 -1 3 C-0.67 2.01 -0.34 1.02 0 0 Z " fill="#ECC033" transform="translate(279,169)"/>
<path d="M0 0 C0.33 0 0.66 0 1 0 C0.67 10.56 0.34 21.12 0 32 C-0.33 32 -0.66 32 -1 32 C-2.64317618 6.44274194 -2.64317618 6.44274194 0 0 Z " fill="#BCBFBB" transform="translate(117,109)"/>
<path d="M0 0 C0.66 0.33 1.32 0.66 2 1 C0.59106853 2.63171123 -0.82745958 4.25513945 -2.25 5.875 C-3.03890625 6.77992187 -3.8278125 7.68484375 -4.640625 8.6171875 C-6.77640908 10.77418798 -8.29509807 11.77592738 -11 13 C-12.09166275 14.93330603 -12.09166275 14.93330603 -13 17 C-14.625 18.75 -14.625 18.75 -16 20 C-15.57781277 15.07448229 -13.49114454 13.33423917 -10 10 C-9.11699219 9.11699219 -8.23398438 8.23398438 -7.32421875 7.32421875 C-4.8828125 4.8828125 -2.44140625 2.44140625 0 0 Z " fill="#CED1CE" transform="translate(143,68)"/>
<path d="M0 0 C0.66 0 1.32 0 2 0 C2.66 2.31 3.32 4.62 4 7 C2.35 6.67 0.7 6.34 -1 6 C-1.33 7.32 -1.66 8.64 -2 10 C-4.31 10 -6.62 10 -9 10 C-9.33 10.66 -9.66 11.32 -10 12 C-10.66 11.67 -11.32 11.34 -12 11 C-12 10.34 -12 9.68 -12 9 C-7.545 8.505 -7.545 8.505 -3 8 C-2.01 5.36 -1.02 2.72 0 0 Z " fill="#D1B44E" transform="translate(191,207)"/>
<path d="M0 0 C0.99 0 1.98 0 3 0 C3.20177072 7.35342179 3.21211746 13.94887561 1 21 C0.67 21 0.34 21 0 21 C0 14.07 0 7.14 0 0 Z " fill="#CCCFC9" transform="translate(259,121)"/>
<path d="M0 0 C0.66 0.33 1.32 0.66 2 1 C0.64615385 7.52307692 0.64615385 7.52307692 -2.625 9.9375 C-3.40875 10.288125 -4.1925 10.63875 -5 11 C-5.33 10.34 -5.66 9.68 -6 9 C-4.84780362 6.02349268 -3.28110175 4.18192341 -1 2 C-0.67 1.34 -0.34 0.68 0 0 Z " fill="#DCB942" transform="translate(104,170)"/>
<path d="M0 0 C3.33331654 2.67838338 4.29411268 5.91660841 5.6875 9.875 C6.12449219 11.08929688 6.56148437 12.30359375 7.01171875 13.5546875 C7.88804593 16.60970953 8.22091829 18.85937785 8 22 C4.87804901 15.99624809 2.71169769 10.47525368 1.52734375 3.8203125 C1.26630859 2.91925781 1.26630859 2.91925781 1 2 C0.34 1.67 -0.32 1.34 -1 1 C-0.67 0.67 -0.34 0.34 0 0 Z " fill="#BDC0BA" transform="translate(136,120)"/>
<path d="M0 0 C2 3 2 3 2 5 C2.66 4.67 3.32 4.34 4 4 C6.3329866 3.95977609 8.66706666 3.95679753 11 4 C11 4.99 11 5.98 11 7 C9.35 7.66 7.7 8.32 6 9 C6 8.01 6 7.02 6 6 C4.35 6 2.7 6 1 6 C0.67 4.02 0.34 2.04 0 0 Z " fill="#BDA650" transform="translate(241,36)"/>
<path d="M0 0 C1.88391785 3.26545761 2.49287967 6.28111761 3 10 C2.01 10 1.02 10 0 10 C0 9.34 0 8.68 0 8 C-0.99 8 -1.98 8 -3 8 C-3.33 7.01 -3.66 6.02 -4 5 C-2.68 4.67 -1.36 4.34 0 4 C0 2.68 0 1.36 0 0 Z " fill="#DABA4A" transform="translate(291,124)"/>
<path d="M0 0 C0.33 0.66 0.66 1.32 1 2 C3.02463255 2.65213292 3.02463255 2.65213292 5 3 C5 3.66 5 4.32 5 5 C2.4385343 7.29648649 1.52032428 8 -2 8 C-1.125 1.125 -1.125 1.125 0 0 Z " fill="#DCBC4B" transform="translate(269,172)"/>
<path d="M0 0 C1.9375 0.6875 1.9375 0.6875 4 2 C4.75 4.625 4.75 4.625 5 7 C1.62496331 5.8141763 -0.64722731 4.72426311 -3 2 C-2.01 1.34 -1.02 0.68 0 0 Z " fill="#CEB14D" transform="translate(112,174)"/>
<path d="M0 0 C0.66 0 1.32 0 2 0 C2.66 2.31 3.32 4.62 4 7 C2.02 7.33 0.04 7.66 -2 8 C-1.34 5.36 -0.68 2.72 0 0 Z " fill="#E2BE43" transform="translate(138,191)"/>
<path d="M0 0 C3.3 0 6.6 0 10 0 C10 0.66 10 1.32 10 2 C8.02 2.33 6.04 2.66 4 3 C4.66 3.33 5.32 3.66 6 4 C5.67 4.66 5.34 5.32 5 6 C3.2925002 4.71937515 1.62626404 3.38232443 0 2 C0 1.34 0 0.68 0 0 Z " fill="#D2B95A" transform="translate(179,30)"/>
<path d="M0 0 C1.65 0.33 3.3 0.66 5 1 C5 1.66 5 2.32 5 3 C3.35 3 1.7 3 0 3 C-0.2475 3.639375 -0.495 4.27875 -0.75 4.9375 C-2 7 -2 7 -4.125 7.75 C-5.053125 7.87375 -5.053125 7.87375 -6 8 C-6 7.34 -6 6.68 -6 6 C-4.02043058 4.30911778 -2.02054804 2.64169528 0 1 C0 0.67 0 0.34 0 0 Z " fill="#CBCECB" transform="translate(234,75)"/>
<path d="M0 0 C0.33 1.32 0.66 2.64 1 4 C2.47890069 5.73026102 2.47890069 5.73026102 4 7 C2.1875 8.5625 2.1875 8.5625 0 10 C-0.99 9.67 -1.98 9.34 -3 9 C-2.01 6.03 -1.02 3.06 0 0 Z " fill="#D4B64B" transform="translate(92,124)"/>
<path d="M0 0 C1.32 0 2.64 0 4 0 C4 0.66 4 1.32 4 2 C4.66 2.33 5.32 2.66 6 3 C4.1875 4.5625 4.1875 4.5625 2 6 C1.01 5.67 0.02 5.34 -1 5 C-0.67 3.35 -0.34 1.7 0 0 Z " fill="#EFC436" transform="translate(281,126)"/>
<path d="M0 0 C1.32 0 2.64 0 4 0 C3.67 1.65 3.34 3.3 3 5 C1.68 5.33 0.36 5.66 -1 6 C-1 3 -1 3 0 0 Z " fill="#F1C431" transform="translate(144,201)"/>
<path d="M0 0 C0.66 0 1.32 0 2 0 C5.44419134 9.41002278 5.44419134 9.41002278 5 14 C3.53347983 11.11980724 2.17952126 8.20691485 0.875 5.25 C0.52179688 4.45078125 0.16859375 3.6515625 -0.1953125 2.828125 C-0.59363281 1.92320312 -0.59363281 1.92320312 -1 1 C-0.67 0.67 -0.34 0.34 0 0 Z " fill="#B3B5AD" transform="translate(144,142)"/>
<path d="M0 0 C0.33 0 0.66 0 1 0 C1.05399736 1.45792884 1.09279177 2.91642712 1.125 4.375 C1.14820313 5.18710938 1.17140625 5.99921875 1.1953125 6.8359375 C1 9 1 9 -1 11 C-1.66 10.34 -2.32 9.68 -3 9 C-2.79296875 7.08984375 -2.79296875 7.08984375 -2.1875 4.9375 C-1.99542969 4.22464844 -1.80335938 3.51179688 -1.60546875 2.77734375 C-1 1 -1 1 0 0 Z " fill="#CAAE49" transform="translate(280,124)"/>
<path d="M0 0 C0.33 0.66 0.66 1.32 1 2 C-0.98 2 -2.96 2 -5 2 C-4.67 3.32 -4.34 4.64 -4 6 C-5.9375 5.1875 -5.9375 5.1875 -8 4 C-8.33 3.01 -8.66 2.02 -9 1 C-4.545 0.505 -4.545 0.505 0 0 Z " fill="#D5B64B" transform="translate(282,117)"/>
<path d="M0 0 C0.33 1.32 0.66 2.64 1 4 C-1.31 4 -3.62 4 -6 4 C-6 4.99 -6 5.98 -6 7 C-6.66 7 -7.32 7 -8 7 C-8 6.34 -8 5.68 -8 5 C-8.66 5 -9.32 5 -10 5 C-10 4.34 -10 3.68 -10 3 C-6.7 3 -3.4 3 0 3 C0 2.01 0 1.02 0 0 Z " fill="#DCBA44" transform="translate(95,115)"/>
<path d="M0 0 C0.66 0 1.32 0 2 0 C5.44419134 9.41002278 5.44419134 9.41002278 5 14 C3.53347983 11.11980724 2.17952126 8.20691485 0.875 5.25 C0.52179688 4.45078125 0.16859375 3.6515625 -0.1953125 2.828125 C-0.59363281 1.92320313 -0.59363281 1.92320313 -1 1 C-0.67 0.67 -0.34 0.34 0 0 Z " fill="#C1C3BA" transform="translate(131,106)"/>
<path d="M0 0 C1.22268689 4.89074757 0.20961767 7.58076466 -2 12 C-2.66 11.67 -3.32 11.34 -4 11 C-2.68 7.37 -1.36 3.74 0 0 Z " fill="#AFB2AD" transform="translate(235,134)"/>
<path d="M0 0 C0.66 0 1.32 0 2 0 C2.66 2.31 3.32 4.62 4 7 C2.68 6.67 1.36 6.34 0 6 C0 4.02 0 2.04 0 0 Z " fill="#D7B644" transform="translate(191,207)"/>
<path d="M0 0 C1.98 0 3.96 0 6 0 C5.34 1.32 4.68 2.64 4 4 C2.68 3.34 1.36 2.68 0 2 C0 1.34 0 0.68 0 0 Z " fill="#EABF36" transform="translate(291,119)"/>
<path d="M0 0 C1.9451 2.91765 2.45276317 4.62537285 3 8 C-1.875 6.25 -1.875 6.25 -3 4 C-2.01 4 -1.02 4 0 4 C0 2.68 0 1.36 0 0 Z " fill="#CBB154" transform="translate(279,82)"/>
<path d="M0 0 C2 2 2 2 2 6 C0.0625 5.6875 0.0625 5.6875 -2 5 C-2.33 4.01 -2.66 3.02 -3 2 C-2.34 2 -1.68 2 -1 2 C-0.67 1.34 -0.34 0.68 0 0 Z " fill="#B4A35F" transform="translate(283,175)"/>
<path d="M0 0 C4 6 4 6 4 10 C3.01 9.67 2.02 9.34 1 9 C0.67 6.03 0.34 3.06 0 0 Z " fill="#B2B5B1" transform="translate(171,157)"/>
<path d="M0 0 C0.66 0.33 1.32 0.66 2 1 C2.6328125 3.06640625 2.6328125 3.06640625 3.125 5.5625 C3.29257813 6.38878906 3.46015625 7.21507812 3.6328125 8.06640625 C3.75398438 8.70449219 3.87515625 9.34257812 4 10 C1.38952199 8.694761 1.31933577 7.64173426 0.375 4.9375 C0.11460938 4.20402344 -0.14578125 3.47054687 -0.4140625 2.71484375 C-0.60742188 2.14894531 -0.80078125 1.58304688 -1 1 C-0.67 0.67 -0.34 0.34 0 0 Z " fill="#AAADA7" transform="translate(119,150)"/>
<path d="" fill="#555A5F" transform="translate(0,0)"/>
<path d="" fill="#555A5F" transform="translate(0,0)"/>
<path d="" fill="#555A5F" transform="translate(0,0)"/>
<path d="" fill="#555A5F" transform="translate(0,0)"/>
<path d="" fill="#555A5F" transform="translate(0,0)"/>
<path d="" fill="#555A5F" transform="translate(0,0)"/>
</svg>
